#tb 0: 1/25
#media_type 0: video
#codec_id 0: rawvideo
#dimensions 0: 352x288
#sar 0: 0/1
0,          0,          0,        1,   304128, 0x2b3d5870
0,          1,          1,        1,   304128, 0x424b73e4
0,          2,          2,        1,   304128, 0x6533e873
0,          3,          3,        1,   304128, 0x2b1b672f
0,          4,          4,        1,   304128, 0xeb29ded9
0,          5,          5,        1,   304128, 0x1321852e
0,          6,          6,        1,   304128, 0x1b6aa309
0,          7,          7,        1,   304128, 0x9e59a5a9
0,          8,          8,        1,   304128, 0x9340c17b
0,          9,          9,        1,   304128, 0x95b459d2
0,         10,         10,        1,   304128, 0xc324ee65
0,         11,         11,        1,   304128, 0x3aba8321
0,         12,         12,        1,   304128, 0xe06b42c9
0,         13,         13,        1,   304128, 0x0159c1ed
0,         14,         14,        1,   304128, 0x13b54e08
0,         15,         15,        1,   304128, 0x4d896eeb
0,         16,         16,        1,   304128, 0x8c20ebfe
0,         17,         17,        1,   304128, 0x343b5f8c
0,         18,         18,        1,   304128, 0x5332f7da
0,         19,         19,        1,   304128, 0x6a676163
0,         20,         20,        1,   304128, 0x36bdaaf1
0,         21,         21,        1,   304128, 0x376adf2d
0,         22,         22,        1,   304128, 0xda4b2f8b
0,         23,         23,        1,   304128, 0x950dad17
0,         24,         24,        1,   304128, 0x2aae480a
0,         25,         25,        1,   304128, 0x6302ade9
0,         26,         26,        1,   304128, 0x3f5250d9
0,         27,         27,        1,   304128, 0x5aacdc6d
0,         28,         28,        1,   304128, 0x38ce2a05
0,         29,         29,        1,   304128, 0x6ecc4efe
0,         30,         30,        1,   304128, 0x2090fc3f
0,         31,         31,        1,   304128, 0xac135b26
0,         32,         32,        1,   304128, 0xc2e2a77c
0,         33,         33,        1,   304128, 0x9a291860
0,         34,         34,        1,   304128, 0x44fa2903
0,         35,         35,        1,   304128, 0x070f7a3c
0,         36,         36,        1,   304128, 0xdd8cb360
0,         37,         37,        1,   304128, 0xe15fa42e
0,         38,         38,        1,   304128, 0xf1f22da5
0,         39,         39,        1,   304128, 0xafece418
0,         40,         40,        1,   304128, 0x2e7b228f
0,         41,         41,        1,   304128, 0xba10381b
0,         42,         42,        1,   304128, 0x28e9b466
0,         43,         43,        1,   304128, 0x41e55c19
0,         44,         44,        1,   304128, 0xce50b50b
0,         45,         45,        1,   304128, 0xd2643201
0,         46,         46,        1,   304128, 0x4bbb58d3
0,         47,         47,        1,   304128, 0xa34ebf0d
0,         48,         48,        1,   304128, 0x77896960
0,         49,         49,        1,   304128, 0x9b78853f
